<svg id="Laag_1" data-name="Laag 1" xmlns="http://www.w3.org/2000/svg" viewBox="0 0 595.4 841.89"><defs><style>.cls-1,.cls-2{fill:none;stroke:#314694;stroke-miterlimit:10;}.cls-2{stroke-width:0.25px;}</style></defs><line class="cls-1" x1="72.13" x2="72.13" y2="841.89"/><line class="cls-1" x1="144.12" x2="144.12" y2="841.89"/><line class="cls-1" x1="216.1" x2="216.1" y2="841.89"/><line class="cls-1" x1="288.09" x2="288.09" y2="841.89"/><line class="cls-1" x1="360.08" x2="360.08" y2="841.89"/><line class="cls-1" x1="432.07" x2="432.07" y2="841.89"/><line class="cls-1" x1="504.06" x2="504.06" y2="841.89"/><line class="cls-1" x1="576.05" x2="576.05" y2="841.89"/><line class="cls-1" x1="0.13" y1="72.18" x2="595.4" y2="72.18"/><line class="cls-1" x1="0.13" y1="144.09" x2="595.4" y2="144.09"/><line class="cls-1" x1="0.13" y1="215.99" x2="595.4" y2="215.99"/><line class="cls-1" x1="0.13" y1="287.9" x2="595.4" y2="287.9"/><line class="cls-1" x1="0.13" y1="359.8" x2="595.4" y2="359.8"/><line class="cls-1" x1="0.13" y1="431.71" x2="595.4" y2="431.71"/><line class="cls-1" x1="0.13" y1="503.61" x2="595.4" y2="503.61"/><line class="cls-1" x1="0.13" y1="575.52" x2="595.4" y2="575.52"/><line class="cls-1" x1="0.13" y1="647.42" x2="595.4" y2="647.42"/><line class="cls-1" x1="0.13" y1="719.33" x2="595.4" y2="719.33"/><line class="cls-1" x1="0.13" y1="791.23" x2="595.4" y2="791.23"/><line class="cls-2" x1="0.13" x2="0.13" y2="841.89"/><line class="cls-2" x1="9.09" x2="9.09" y2="841.89"/><line class="cls-2" x1="18.06" x2="18.06" y2="841.89"/><line class="cls-2" x1="27.03" x2="27.03" y2="841.89"/><line class="cls-2" x1="35.99" x2="35.99" y2="841.89"/><line class="cls-2" x1="44.96" x2="44.96" y2="841.89"/><line class="cls-2" x1="53.93" x2="53.93" y2="841.89"/><line class="cls-2" x1="81.37" x2="81.37" y2="841.89"/><line class="cls-2" x1="90.33" x2="90.33" y2="841.89"/><line class="cls-2" x1="99.3" x2="99.3" y2="841.89"/><line class="cls-2" x1="108.27" x2="108.27" y2="841.89"/><line class="cls-2" x1="117.24" x2="117.24" y2="841.89"/><line class="cls-2" x1="126.2" x2="126.2" y2="841.89"/><line class="cls-2" x1="135.17" x2="135.17" y2="841.89"/><line class="cls-2" x1="153.06" x2="153.06" y2="841.89"/><line class="cls-2" x1="162.03" x2="162.03" y2="841.89"/><line class="cls-2" x1="171" x2="171" y2="841.89"/><line class="cls-2" x1="179.97" x2="179.97" y2="841.89"/><line class="cls-2" x1="188.93" x2="188.93" y2="841.89"/><line class="cls-2" x1="197.9" x2="197.9" y2="841.89"/><line class="cls-2" x1="206.87" x2="206.87" y2="841.89"/><line class="cls-2" x1="224.99" x2="224.99" y2="841.89"/><line class="cls-2" x1="233.95" x2="233.95" y2="841.89"/><line class="cls-2" x1="242.92" x2="242.92" y2="841.89"/><line class="cls-2" x1="251.89" x2="251.89" y2="841.89"/><line class="cls-2" x1="260.86" x2="260.86" y2="841.89"/><line class="cls-2" x1="269.82" x2="269.82" y2="841.89"/><line class="cls-2" x1="278.79" x2="278.79" y2="841.89"/><line class="cls-2" x1="296.9" x2="296.9" y2="841.89"/><line class="cls-2" x1="305.87" x2="305.87" y2="841.89"/><line class="cls-2" x1="314.83" x2="314.83" y2="841.89"/><line class="cls-2" x1="323.8" x2="323.8" y2="841.89"/><line class="cls-2" x1="332.77" x2="332.77" y2="841.89"/><line class="cls-2" x1="341.74" x2="341.74" y2="841.89"/><line class="cls-2" x1="350.7" x2="350.7" y2="841.89"/><line class="cls-2" x1="369.17" x2="369.17" y2="841.89"/><line class="cls-2" x1="378.14" x2="378.14" y2="841.89"/><line class="cls-2" x1="387.11" x2="387.11" y2="841.89"/><line class="cls-2" x1="396.08" x2="396.08" y2="841.89"/><line class="cls-2" x1="405.04" x2="405.04" y2="841.89"/><line class="cls-2" x1="414.01" x2="414.01" y2="841.89"/><line class="cls-2" x1="422.98" x2="422.98" y2="841.89"/><line class="cls-2" x1="441.16" x2="441.16" y2="841.89"/><line class="cls-2" x1="450.13" x2="450.13" y2="841.89"/><line class="cls-2" x1="459.1" x2="459.1" y2="841.89"/><line class="cls-2" x1="468.06" x2="468.06" y2="841.89"/><line class="cls-2" x1="477.03" x2="477.03" y2="841.89"/><line class="cls-2" x1="486" x2="486" y2="841.89"/><line class="cls-2" x1="494.97" x2="494.97" y2="841.89"/><line class="cls-2" x1="513.15" x2="513.15" y2="841.89"/><line class="cls-2" x1="522.12" x2="522.12" y2="841.89"/><line class="cls-2" x1="531.08" x2="531.08" y2="841.89"/><line class="cls-2" x1="540.05" x2="540.05" y2="841.89"/><line class="cls-2" x1="549.02" x2="549.02" y2="841.89"/><line class="cls-2" x1="557.99" x2="557.99" y2="841.89"/><line class="cls-2" x1="566.95" x2="566.95" y2="841.89"/><line class="cls-2" x1="585.12" x2="585.12" y2="841.89"/><line class="cls-2" x1="594.09" x2="594.09" y2="841.89"/><line class="cls-2" x1="0.13" y1="63.15" x2="595.4" y2="63.15"/><line class="cls-2" x1="0.13" y1="54.18" x2="595.4" y2="54.18"/><line class="cls-2" x1="0.13" y1="45.21" x2="595.4" y2="45.21"/><line class="cls-2" x1="0.13" y1="36.24" x2="595.4" y2="36.24"/><line class="cls-2" x1="0.13" y1="27.28" x2="595.4" y2="27.28"/><line class="cls-2" x1="0.13" y1="18.31" x2="595.4" y2="18.31"/><line class="cls-2" x1="0.13" y1="9.34" x2="595.4" y2="9.34"/><line class="cls-2" x1="0.13" y1="135.03" x2="595.4" y2="135.03"/><line class="cls-2" x1="0.13" y1="126.07" x2="595.4" y2="126.07"/><line class="cls-2" x1="0.13" y1="117.1" x2="595.4" y2="117.1"/><line class="cls-2" x1="0.13" y1="108.13" x2="595.4" y2="108.13"/><line class="cls-2" x1="0.13" y1="99.17" x2="595.4" y2="99.17"/><line class="cls-2" x1="0.13" y1="90.2" x2="595.4" y2="90.2"/><line class="cls-2" x1="0.13" y1="81.23" x2="595.4" y2="81.23"/><line class="cls-2" x1="0.13" y1="206.94" x2="595.4" y2="206.94"/><line class="cls-2" x1="0.13" y1="197.97" x2="595.4" y2="197.97"/><line class="cls-2" x1="0.13" y1="189.01" x2="595.4" y2="189.01"/><line class="cls-2" x1="0.13" y1="180.04" x2="595.4" y2="180.04"/><line class="cls-2" x1="0.13" y1="171.07" x2="595.4" y2="171.07"/><line class="cls-2" x1="0.13" y1="162.1" x2="595.4" y2="162.1"/><line class="cls-2" x1="0.13" y1="153.14" x2="595.4" y2="153.14"/><line class="cls-2" x1="0.13" y1="278.84" x2="595.4" y2="278.84"/><line class="cls-2" x1="0.13" y1="269.88" x2="595.4" y2="269.88"/><line class="cls-2" x1="0.13" y1="260.91" x2="595.4" y2="260.91"/><line class="cls-2" x1="0.13" y1="251.94" x2="595.4" y2="251.94"/><line class="cls-2" x1="0.13" y1="242.98" x2="595.4" y2="242.98"/><line class="cls-2" x1="0.13" y1="234.01" x2="595.4" y2="234.01"/><line class="cls-2" x1="0.13" y1="225.04" x2="595.4" y2="225.04"/><line class="cls-2" x1="0.13" y1="350.75" x2="595.4" y2="350.75"/><line class="cls-2" x1="0.13" y1="341.78" x2="595.4" y2="341.78"/><line class="cls-2" x1="0.13" y1="332.82" x2="595.4" y2="332.82"/><line class="cls-2" x1="0.13" y1="323.85" x2="595.4" y2="323.85"/><line class="cls-2" x1="0.13" y1="314.88" x2="595.4" y2="314.88"/><line class="cls-2" x1="0.13" y1="305.91" x2="595.4" y2="305.91"/><line class="cls-2" x1="0.13" y1="296.95" x2="595.4" y2="296.95"/><line class="cls-2" x1="0.13" y1="422.65" x2="595.4" y2="422.65"/><line class="cls-2" x1="0.13" y1="413.69" x2="595.4" y2="413.69"/><line class="cls-2" x1="0.13" y1="404.72" x2="595.4" y2="404.72"/><line class="cls-2" x1="0.13" y1="395.75" x2="595.4" y2="395.75"/><line class="cls-2" x1="0.13" y1="386.79" x2="595.4" y2="386.79"/><line class="cls-2" x1="0.13" y1="377.82" x2="595.4" y2="377.82"/><line class="cls-2" x1="0.13" y1="368.85" x2="595.4" y2="368.85"/><line class="cls-2" x1="0.13" y1="494.56" x2="595.4" y2="494.56"/><line class="cls-2" x1="0.13" y1="485.59" x2="595.4" y2="485.59"/><line class="cls-2" x1="0.13" y1="476.63" x2="595.4" y2="476.63"/><line class="cls-2" x1="0.13" y1="467.66" x2="595.4" y2="467.66"/><line class="cls-2" x1="0.13" y1="458.69" x2="595.4" y2="458.69"/><line class="cls-2" x1="0.13" y1="449.72" x2="595.4" y2="449.72"/><line class="cls-2" x1="0.13" y1="440.76" x2="595.4" y2="440.76"/><line class="cls-2" x1="0.13" y1="566.46" x2="595.4" y2="566.46"/><line class="cls-2" x1="0.13" y1="557.5" x2="595.4" y2="557.5"/><line class="cls-2" x1="0.13" y1="548.53" x2="595.4" y2="548.53"/><line class="cls-2" x1="0.13" y1="539.56" x2="595.4" y2="539.56"/><line class="cls-2" x1="0.13" y1="530.6" x2="595.4" y2="530.6"/><line class="cls-2" x1="0.13" y1="521.63" x2="595.4" y2="521.63"/><line class="cls-2" x1="0.13" y1="512.66" x2="595.4" y2="512.66"/><line class="cls-2" x1="0.13" y1="638.37" x2="595.4" y2="638.37"/><line class="cls-2" x1="0.13" y1="629.4" x2="595.4" y2="629.4"/><line class="cls-2" x1="0.13" y1="620.44" x2="595.4" y2="620.44"/><line class="cls-2" x1="0.13" y1="611.47" x2="595.4" y2="611.47"/><line class="cls-2" x1="0.13" y1="602.5" x2="595.4" y2="602.5"/><line class="cls-2" x1="0.13" y1="593.53" x2="595.4" y2="593.53"/><line class="cls-2" x1="0.13" y1="584.57" x2="595.4" y2="584.57"/><line class="cls-2" x1="0.13" y1="710.27" x2="595.4" y2="710.27"/><line class="cls-2" x1="0.13" y1="701.31" x2="595.4" y2="701.31"/><line class="cls-2" x1="0.13" y1="692.34" x2="595.4" y2="692.34"/><line class="cls-2" x1="0.13" y1="683.37" x2="595.4" y2="683.37"/><line class="cls-2" x1="0.13" y1="674.41" x2="595.4" y2="674.41"/><line class="cls-2" x1="0.13" y1="665.44" x2="595.4" y2="665.44"/><line class="cls-2" x1="0.13" y1="656.47" x2="595.4" y2="656.47"/><line class="cls-2" x1="0.13" y1="782.18" x2="595.4" y2="782.18"/><line class="cls-2" x1="0.13" y1="773.21" x2="595.4" y2="773.21"/><line class="cls-2" x1="0.13" y1="764.25" x2="595.4" y2="764.25"/><line class="cls-2" x1="0.13" y1="755.28" x2="595.4" y2="755.28"/><line class="cls-2" x1="0.13" y1="746.31" x2="595.4" y2="746.31"/><line class="cls-2" x1="0.13" y1="737.34" x2="595.4" y2="737.34"/><line class="cls-2" x1="0.13" y1="728.38" x2="595.4" y2="728.38"/><line class="cls-2" x1="0.13" y1="837.34" x2="595.4" y2="837.34"/><line class="cls-2" x1="0.13" y1="828.37" x2="595.4" y2="828.37"/><line class="cls-2" x1="0.13" y1="819.4" x2="595.4" y2="819.4"/><line class="cls-2" x1="0.13" y1="810.44" x2="595.4" y2="810.44"/><line class="cls-2" x1="0.13" y1="801.47" x2="595.4" y2="801.47"/><line class="cls-2" x1="63.1" x2="63.1" y2="841.89"/></svg>